<svg width="630" height="382" viewBox="0 0 630 382" fill="none" xmlns="http://www.w3.org/2000/svg">
<g clip-path="url(#clip0_144_739)">
<path d="M1.5 11C1.5 5.47716 5.97715 1 11.5 1H619C624.523 1 629 5.47715 629 11V371C629 376.523 624.523 381 619 381H11.5C5.97715 381 1.5 376.523 1.5 371V11Z" fill="url(#paint0_linear_144_739)"/>
<g clip-path="url(#clip1_144_739)">
<g clip-path="url(#clip2_144_739)">
<g clip-path="url(#clip3_144_739)">
<mask id="mask0_144_739" style="mask-type:luminance" maskUnits="userSpaceOnUse" x="0" y="106" width="628" height="295">
<path d="M627.872 106.314H0.0161133V400.017H627.872V106.314Z" fill="white"/>
</mask>
<g mask="url(#mask0_144_739)">
<mask id="mask1_144_739" style="mask-type:luminance" maskUnits="userSpaceOnUse" x="-61" y="22" width="881" height="509">
<path d="M422.804 22.079L-60.777 301.275L336.408 530.589L819.988 251.394L422.804 22.079Z" fill="white"/>
</mask>
<g mask="url(#mask1_144_739)">
<mask id="mask2_144_739" style="mask-type:alpha" maskUnits="userSpaceOnUse" x="11" y="68" width="773" height="448">
<path opacity="0.6" d="M145.107 275.264L145.312 275.382M145.312 275.382L192.076 302.381M145.312 275.382L100.825 301.065M145.312 275.382L189.798 249.697M192.076 302.381L238.84 329.381M192.076 302.381L147.589 328.065M192.076 302.381L236.563 276.697M100.825 301.065L100.621 300.949M100.825 301.065L147.589 328.065M100.825 301.065L56.3387 326.751M189.798 249.697L234.284 224.013M189.798 249.697L189.594 249.58M189.798 249.697L236.563 276.697M238.84 329.381L285.605 356.379M238.84 329.381L194.353 355.065M238.84 329.381L283.326 303.695M147.589 328.065L194.353 355.065M147.589 328.065L103.103 353.75M236.563 276.697L281.049 251.012M236.563 276.697L283.326 303.695M285.605 356.379L332.368 383.379M285.605 356.379L241.118 382.064M285.605 356.379L330.09 330.695M194.353 355.065L241.118 382.064M194.353 355.065L149.867 380.748M283.326 303.695L327.813 278.012M283.326 303.695L330.09 330.695M332.368 383.379L379.132 410.378M332.368 383.379L287.882 409.062M332.368 383.379L376.855 357.695M241.118 382.064L287.882 409.062M241.118 382.064L196.631 407.748M330.09 330.695L374.578 305.011M330.09 330.695L376.855 357.695M379.132 410.378L425.897 437.378M379.132 410.378L334.645 436.062M379.132 410.378L423.62 384.694M287.882 409.062L334.645 436.062M287.882 409.062L243.395 434.748M376.855 357.695L421.341 332.011M376.855 357.695L423.62 384.694M425.897 437.378L381.41 463.062M425.897 437.378L470.383 411.693M334.645 436.062L381.41 463.062M334.645 436.062L290.16 461.746M423.62 384.694L468.105 359.009M423.62 384.694L470.383 411.693M381.41 463.062L336.924 488.746M470.383 411.693L514.87 386.009M56.3387 326.751L56.1345 326.632M56.3387 326.751L103.103 353.75M56.3387 326.751L11.8522 352.434M103.103 353.75L149.867 380.748M103.103 353.75L58.6164 379.434M149.867 380.748L196.631 407.748M149.867 380.748L105.38 406.434M196.631 407.748L243.395 434.748M196.631 407.748L152.145 433.432M243.395 434.748L290.16 461.746M243.395 434.748L198.909 460.432M290.16 461.746L336.924 488.746M290.16 461.746L245.672 487.431M336.924 488.746L292.437 514.429L245.672 487.431M278.567 198.211L278.771 198.329M278.771 198.329L234.284 224.013M278.771 198.329L292.37 190.478M234.284 224.013L234.081 223.895M234.284 224.013L281.049 251.012M11.8522 352.434L11.6481 352.316M11.8522 352.434L58.6164 379.434M58.6164 379.434L105.38 406.434M105.38 406.434L152.145 433.432M152.145 433.432L198.909 460.432M198.909 460.432L245.672 487.431M281.049 251.012L327.813 278.012M281.049 251.012L325.536 225.328L339.133 217.477M327.813 278.012L374.578 305.011M327.813 278.012L372.299 252.327L385.898 244.476M374.578 305.011L421.341 332.011M374.578 305.011L419.063 279.327L432.662 271.476M421.341 332.011L468.105 359.009M421.341 332.011L465.828 306.326L479.427 298.474M468.105 359.009L514.87 386.009M468.105 359.009L512.592 333.325L526.19 325.474M514.87 386.009L559.355 360.325L572.954 352.474M412.829 120.695L413.034 120.812M413.034 120.812L459.797 147.812M413.034 120.812L368.547 146.497M413.034 120.812L457.519 95.1282M459.797 147.812L506.561 174.811M459.797 147.812L415.311 173.496M459.797 147.812L504.284 122.128M368.547 146.497L368.342 146.379M368.547 146.497L415.311 173.496M368.547 146.497L324.061 172.181M457.519 95.1282L502.007 69.4439M457.519 95.1282L457.315 95.0103M457.519 95.1282L504.284 122.128M506.561 174.811L553.326 201.81M506.561 174.811L462.076 200.495M506.561 174.811L551.048 149.127M415.311 173.496L462.076 200.495M415.311 173.496L370.824 199.18M504.284 122.128L548.771 96.4432M504.284 122.128L551.048 149.127M553.326 201.81L600.09 228.81M553.326 201.81L508.839 227.495M553.326 201.81L597.811 176.126M462.076 200.495L508.839 227.495M462.076 200.495L417.588 226.18M551.048 149.127L595.534 123.443M551.048 149.127L597.811 176.126M600.09 228.81L646.853 255.809M600.09 228.81L555.603 254.494M600.09 228.81L644.576 203.125M508.839 227.495L555.603 254.494M508.839 227.495L464.353 253.179M597.811 176.126L642.299 150.442M597.811 176.126L644.576 203.125M646.853 255.809L693.618 282.808M646.853 255.809L602.368 281.493M646.853 255.809L691.341 230.125M555.603 254.494L602.368 281.493M555.603 254.494L511.117 280.178M644.576 203.125L689.063 177.441M644.576 203.125L691.341 230.125M693.618 282.808L649.132 308.492M693.618 282.808L738.105 257.124M602.368 281.493L649.132 308.492M602.368 281.493L557.88 307.178M691.341 230.125L735.828 204.44M691.341 230.125L738.105 257.124M649.132 308.492L604.645 334.176M738.105 257.124L782.591 231.44L735.828 204.44M324.061 172.181L323.857 172.063M324.061 172.181L370.824 199.18M324.061 172.181L279.574 197.865M370.824 199.18L417.588 226.18M370.824 199.18L326.338 224.865M417.588 226.18L464.353 253.179M417.588 226.18L373.103 251.864M464.353 253.179L511.117 280.178M464.353 253.179L419.866 278.863M511.117 280.178L557.88 307.178M511.117 280.178L466.63 305.862M557.88 307.178L604.645 334.176M557.88 307.178L513.395 332.862M604.645 334.176L560.159 359.862M279.574 197.865L279.369 197.747M279.574 197.865L326.338 224.865M279.574 197.865L265.975 205.716M326.338 224.865L373.103 251.864M326.338 224.865L312.739 232.716M373.103 251.864L419.866 278.863M373.103 251.864L359.504 259.715M419.866 278.863L466.63 305.862M419.866 278.863L406.268 286.714M466.63 305.862L513.395 332.862M466.63 305.862L453.031 313.713M513.395 332.862L560.159 359.862M513.395 332.862L499.796 340.713M560.159 359.862L546.56 367.713M501.802 69.326L502.007 69.4439M502.007 69.4439L548.771 96.4432M548.771 96.4432L595.534 123.443M595.534 123.443L642.299 150.442M642.299 150.442L689.063 177.441M689.063 177.441L735.828 204.44" stroke="#D4F7F1" stroke-width="1.33539"/>
</mask>
<g mask="url(#mask2_144_739)">
<g style="mix-blend-mode:screen" filter="url(#filter0_f_144_739)">
<path d="M364.607 361.894C405.364 338.363 408.05 301.762 370.606 280.144C333.163 258.526 269.769 260.077 229.012 283.608C188.255 307.139 185.569 343.74 223.012 365.358C260.456 386.976 323.85 385.425 364.607 361.894Z" fill="#F6A91C" fill-opacity="0.6"/>
</g>
<g style="mix-blend-mode:screen" filter="url(#filter1_f_144_739)">
<path d="M603.997 268.02C645.748 243.915 649.24 206.849 611.797 185.231C574.353 163.613 510.154 165.629 468.403 189.734C426.652 213.839 423.16 250.905 460.603 272.523C498.046 294.141 562.246 292.125 603.997 268.02Z" fill="#F6A91C" fill-opacity="0.6"/>
</g>
</g>
<path d="M487.002 265.596L514.962 281.739C519.402 284.301 526.599 284.301 531.038 281.739L559.961 265.041C564.399 262.478 571.598 262.478 576.037 265.041L627.396 294.693" stroke="url(#paint1_linear_144_739)" stroke-width="1.60932"/>
<path d="M130.418 300.815L106.419 314.671C101.34 317.604 101.34 322.358 106.419 325.291L130.418 339.147C135.498 342.079 143.733 342.079 148.812 339.147L172.811 325.291C177.89 322.358 177.89 317.604 172.811 314.671L148.812 300.815C143.733 297.883 135.498 297.883 130.418 300.815Z" fill="#F6A91C" fill-opacity="0.15" stroke="url(#paint2_linear_144_739)" stroke-width="1.08014"/>
<path d="M224.015 354.853L200.016 368.708C194.936 371.641 194.936 376.396 200.016 379.328L224.015 393.184C229.094 396.117 237.329 396.117 242.408 393.184L266.408 379.328C271.487 376.396 271.487 371.641 266.408 368.708L242.408 354.853C237.329 351.92 229.094 351.92 224.015 354.853Z" fill="#F6A91C" fill-opacity="0.15" stroke="url(#paint3_linear_144_739)" stroke-width="1.08014"/>
<path d="M138.415 319.98L175.375 341.318C179.815 343.882 187.012 343.882 191.452 341.318L254.211 305.085" stroke="url(#paint4_linear_144_739)" stroke-width="1.60932"/>
<g filter="url(#filter2_d_144_739)">
<path d="M141.415 321.713C143.072 320.756 143.072 319.205 141.415 318.249C139.758 317.292 137.072 317.292 135.415 318.249C133.759 319.205 133.759 320.756 135.415 321.713C137.072 322.669 139.758 322.669 141.415 321.713Z" fill="#F6A91C" fill-opacity="0.88"/>
</g>
<g filter="url(#filter3_d_144_739)">
<path d="M235.012 375.749C236.668 374.793 236.668 373.242 235.012 372.285C233.355 371.329 230.669 371.329 229.012 372.285C227.355 373.242 227.355 374.793 229.012 375.749C230.669 376.706 233.355 376.706 235.012 375.749Z" fill="#F6A91C" fill-opacity="0.88"/>
</g>
<path d="M232.011 374.019L195.052 352.681C190.612 350.117 190.612 345.962 195.052 343.398L257.81 307.164" stroke="url(#paint5_linear_144_739)" stroke-width="1.60932"/>
<g filter="url(#filter4_d_144_739)">
<path d="M251.21 302.66L248.81 304.046C248.148 304.429 248.148 305.049 248.81 305.432L257.21 310.281C257.873 310.664 258.947 310.664 259.61 310.281L262.01 308.895C262.673 308.513 262.673 307.892 262.01 307.51L253.61 302.66C252.948 302.278 251.873 302.278 251.21 302.66Z" fill="#F6A91C"/>
</g>
<g filter="url(#filter5_d_144_739)">
<mask id="mask3_144_739" style="mask-type:luminance" maskUnits="userSpaceOnUse" x="198" y="146" width="354" height="205">
<path d="M405.975 148.185L200.842 266.619C197.512 268.541 197.512 271.658 200.842 273.581L331.578 349.061C334.908 350.983 340.306 350.983 343.636 349.061L548.769 230.627C552.099 228.705 552.099 225.588 548.769 223.666L418.033 148.185C414.703 146.263 409.305 146.263 405.975 148.185Z" fill="white"/>
</mask>
<g mask="url(#mask3_144_739)">
<path d="M405.975 148.185L200.842 266.619C197.512 268.541 197.512 271.658 200.842 273.581L331.578 349.061C334.908 350.983 340.306 350.983 343.636 349.061L548.769 230.627C552.099 228.705 552.099 225.588 548.769 223.666L418.033 148.185C414.703 146.263 409.305 146.263 405.975 148.185Z" fill="white" fill-opacity="0.05"/>
<g filter="url(#filter6_f_144_739)">
<path d="M311.208 327.601L488.801 225.067L400.005 173.801L222.412 276.334L311.208 327.601Z" fill="url(#paint6_linear_144_739)"/>
</g>
<g filter="url(#filter7_d_144_739)">
<path d="M394.605 205.323L394.605 205.323C394.273 205.132 393.736 205.132 393.405 205.323L261.41 281.53C261.078 281.722 261.078 282.032 261.41 282.223C261.741 282.414 262.278 282.414 262.61 282.223L394.605 206.016C394.936 205.824 394.936 205.514 394.605 205.323Z" fill="#F6A91C"/>
</g>
<g filter="url(#filter8_d_144_739)">
<path d="M467.803 202.552C468.134 202.361 468.134 202.051 467.803 201.86C467.471 201.668 466.934 201.668 466.603 201.86L412.605 233.035C412.273 233.227 412.273 233.537 412.605 233.728C412.936 233.919 413.473 233.919 413.805 233.728L467.803 202.552Z" fill="#F6A91C"/>
</g>
<g filter="url(#filter9_d_144_739)">
<path d="M385.006 275.988L385.006 275.988C384.675 275.797 384.138 275.797 383.806 275.988L317.809 314.092C317.477 314.283 317.477 314.594 317.809 314.785C318.14 314.976 318.677 314.976 319.009 314.785L385.006 276.681C385.338 276.49 385.338 276.18 385.006 275.988Z" fill="#F6A91C"/>
</g>
</g>
<path d="M406.575 148.531L201.442 266.965C198.444 268.696 198.444 271.503 201.442 273.234L332.178 348.715C335.176 350.446 340.038 350.446 343.036 348.715L548.169 230.281C551.168 228.55 551.168 225.743 548.169 224.012L417.433 148.531C414.435 146.8 409.574 146.8 406.575 148.531Z" stroke="url(#paint7_linear_144_739)" stroke-width="1.60932"/>
</g>
<path d="M118.473 307.806L69.6296 279.607C65.1902 277.043 57.9923 277.043 53.5528 279.607L-159.173 402.423" stroke="url(#paint8_linear_144_739)" stroke-width="1.60932"/>
<g style="mix-blend-mode:lighten" filter="url(#filter10_f_144_739)">
<path d="M401.205 333.837C454.885 302.845 471.27 262.057 437.803 242.734C404.336 223.412 333.689 232.873 280.01 263.865C226.33 294.857 209.944 335.645 243.411 354.967C276.878 374.289 347.525 364.829 401.205 333.837Z" fill="#F6A91C" fill-opacity="0.6"/>
</g>
</g>
<path style="mix-blend-mode:screen" d="M413.111 2.71601V234.388L468.379 202.298V-13.4758L413.111 2.71601Z" fill="url(#paint9_linear_144_739)"/>
<path style="mix-blend-mode:screen" d="M394.239 -24.8623V206.811L261.747 282.52V50.0911L394.239 -24.8623Z" fill="url(#paint10_linear_144_739)"/>
<path style="mix-blend-mode:screen" d="M317.772 83.1604V314.833L385.154 275.708V59.9344L317.772 83.1604Z" fill="url(#paint11_linear_144_739)"/>
<g style="mix-blend-mode:screen" filter="url(#filter11_d_144_739)">
<path d="M323.072 299.934C323.325 292.363 325.192 277.222 330.643 277.222C337.457 277.222 336.7 289.335 342 289.335C347.299 289.335 345.785 255.266 354.113 253.752C362.441 252.237 366.227 256.78 371.527 252.237C376.826 247.695 375.312 234.067 380.612 232.553" stroke="#F6A91C" stroke-width="1.7587" stroke-linecap="round"/>
</g>
<mask id="mask4_144_739" style="mask-type:luminance" maskUnits="userSpaceOnUse" x="266" y="120" width="107" height="159">
<path d="M372.284 120.501L266.29 181.697L266.29 278.845L372.284 217.649L372.284 120.501Z" fill="white"/>
</mask>
<g mask="url(#mask4_144_739)">
<g filter="url(#filter12_d_144_739)">
<path d="M285.051 230.874L283.097 232.002V229.803L282.155 230.347V232.546L280.202 233.674V275.994L282.155 274.866V275.687L283.097 275.143V274.322L285.051 273.194V230.874Z" fill="#F6A91C"/>
</g>
<g filter="url(#filter13_d_144_739)">
<path d="M292.449 225.269L290.55 226.365V223.255L289.633 223.784V226.895L287.734 227.991V237.677L289.633 236.581V244.299L290.55 243.769V236.051L292.449 234.955V225.269Z" fill="#F6A91C"/>
</g>
<g filter="url(#filter14_d_144_739)">
<path d="M297.983 222.073V214.161L297.067 214.69V222.603L295.169 223.699V231.788L299.884 229.066V220.977L297.983 222.073Z" fill="#F6A91C"/>
</g>
<g filter="url(#filter15_d_144_739)">
<path d="M304.438 224.729V221.576L303.518 222.108V225.26L301.622 226.354V243.799L306.333 241.079V223.634L304.438 224.729Z" fill="#F6A91C"/>
</g>
<g filter="url(#filter16_d_144_739)">
<path d="M313.681 235.299L311.782 236.395V199.967L310.862 200.499V236.927L308.966 238.021V244.243L310.862 243.148V254.236L311.782 253.705V242.617L313.681 241.521V235.299Z" fill="#F6A91C"/>
</g>
<g filter="url(#filter17_d_144_739)">
<path d="M321.205 194.527L319.306 195.624V178.025L318.389 178.555V196.153L316.49 197.249V239.899L318.389 238.803V246.892L319.306 246.363V238.273L321.205 237.177V194.527Z" fill="#F6A91C"/>
</g>
<g filter="url(#filter18_d_144_739)">
<path d="M328.463 167.59L326.678 168.621V156.401L325.757 156.933V169.152L323.748 170.312V194.444L325.757 193.284V201.373L326.678 200.842V192.753L328.463 191.722V167.59Z" fill="#F6A91C"/>
</g>
<g filter="url(#filter19_d_144_739)">
<path d="M335.941 163.654L334.043 164.751V163.284L333.125 163.813V165.28L331.226 166.377V171.143L333.125 170.046V181.188L334.043 180.658V169.517L335.941 168.421V163.654Z" fill="#F6A91C"/>
</g>
<g filter="url(#filter20_d_144_739)">
<path d="M343.332 162.54L341.436 163.634V157.159L340.516 157.691V164.165L338.62 165.26V174.946L340.516 173.851V183.16L341.436 182.629V173.32L343.332 172.226V162.54Z" fill="#F6A91C"/>
</g>
<g filter="url(#filter21_d_144_739)">
<path d="M350.726 166.189L348.871 167.26V165.598L347.95 166.13V167.791L346.011 168.911V178.591L347.95 177.471V183.716L348.871 183.185V176.94L350.726 175.869V166.189Z" fill="#F6A91C"/>
</g>
<g filter="url(#filter22_d_144_739)">
<path d="M356.306 137.451V129.727L355.39 130.256V137.98L353.491 139.076V174.273L358.206 171.551V136.354L356.306 137.451Z" fill="#F6A91C"/>
</g>
</g>
</g>
</g>
</g>
</g>
</g>
<path d="M619 0.5C624.799 0.5 629.5 5.20101 629.5 11V371C629.5 376.799 624.799 381.5 619 381.5H11.5C5.70101 381.5 1 376.799 1 371V11C1 5.20101 5.70101 0.5 11.5 0.5H619Z" stroke="#F6A91C" stroke-opacity="0.2"/>
<defs>
<filter id="filter0_f_144_739" x="126.043" y="194.34" width="341.532" height="256.823" filterUnits="userSpaceOnUse" color-interpolation-filters="sRGB">
<feFlood flood-opacity="0" result="BackgroundImageFix"/>
<feBlend mode="normal" in="SourceGraphic" in2="BackgroundImageFix" result="shape"/>
<feGaussianBlur stdDeviation="35.2767" result="effect1_foregroundBlur_144_739"/>
</filter>
<filter id="filter1_f_144_739" x="364.101" y="99.6962" width="344.199" height="258.362" filterUnits="userSpaceOnUse" color-interpolation-filters="sRGB">
<feFlood flood-opacity="0" result="BackgroundImageFix"/>
<feBlend mode="normal" in="SourceGraphic" in2="BackgroundImageFix" result="shape"/>
<feGaussianBlur stdDeviation="35.2767" result="effect1_foregroundBlur_144_739"/>
</filter>
<filter id="filter2_d_144_739" x="129.852" y="313.211" width="17.1265" height="13.5403" filterUnits="userSpaceOnUse" color-interpolation-filters="sRGB">
<feFlood flood-opacity="0" result="BackgroundImageFix"/>
<feColorMatrix in="SourceAlpha" type="matrix" values="0 0 0 0 0 0 0 0 0 0 0 0 0 0 0 0 0 0 127 0" result="hardAlpha"/>
<feOffset/>
<feGaussianBlur stdDeviation="2.16037"/>
<feComposite in2="hardAlpha" operator="out"/>
<feColorMatrix type="matrix" values="0 0 0 0 0.784314 0 0 0 0 0.996078 0 0 0 0 0.831373 0 0 0 1 0"/>
<feBlend mode="normal" in2="BackgroundImageFix" result="effect1_dropShadow_144_739"/>
<feBlend mode="normal" in="SourceGraphic" in2="effect1_dropShadow_144_739" result="shape"/>
</filter>
<filter id="filter3_d_144_739" x="223.449" y="367.247" width="17.1265" height="13.5403" filterUnits="userSpaceOnUse" color-interpolation-filters="sRGB">
<feFlood flood-opacity="0" result="BackgroundImageFix"/>
<feColorMatrix in="SourceAlpha" type="matrix" values="0 0 0 0 0 0 0 0 0 0 0 0 0 0 0 0 0 0 127 0" result="hardAlpha"/>
<feOffset/>
<feGaussianBlur stdDeviation="2.16037"/>
<feComposite in2="hardAlpha" operator="out"/>
<feColorMatrix type="matrix" values="0 0 0 0 0.784314 0 0 0 0 0.996078 0 0 0 0 0.831373 0 0 0 1 0"/>
<feBlend mode="normal" in2="BackgroundImageFix" result="effect1_dropShadow_144_739"/>
<feBlend mode="normal" in="SourceGraphic" in2="effect1_dropShadow_144_739" result="shape"/>
</filter>
<filter id="filter4_d_144_739" x="243.993" y="298.053" width="22.8351" height="16.8361" filterUnits="userSpaceOnUse" color-interpolation-filters="sRGB">
<feFlood flood-opacity="0" result="BackgroundImageFix"/>
<feColorMatrix in="SourceAlpha" type="matrix" values="0 0 0 0 0 0 0 0 0 0 0 0 0 0 0 0 0 0 127 0" result="hardAlpha"/>
<feOffset/>
<feGaussianBlur stdDeviation="2.16037"/>
<feComposite in2="hardAlpha" operator="out"/>
<feColorMatrix type="matrix" values="0 0 0 0 0.784314 0 0 0 0 0.996078 0 0 0 0 0.831373 0 0 0 1 0"/>
<feBlend mode="normal" in2="BackgroundImageFix" result="effect1_dropShadow_144_739"/>
<feBlend mode="normal" in="SourceGraphic" in2="effect1_dropShadow_144_739" result="shape"/>
</filter>
<filter id="filter5_d_144_739" x="186.753" y="145.99" width="368.019" height="218.741" filterUnits="userSpaceOnUse" color-interpolation-filters="sRGB">
<feFlood flood-opacity="0" result="BackgroundImageFix"/>
<feColorMatrix in="SourceAlpha" type="matrix" values="0 0 0 0 0 0 0 0 0 0 0 0 0 0 0 0 0 0 127 0" result="hardAlpha"/>
<feOffset dx="-4.04279" dy="6.73798"/>
<feGaussianBlur stdDeviation="3.7059"/>
<feComposite in2="hardAlpha" operator="out"/>
<feColorMatrix type="matrix" values="0 0 0 0 0 0 0 0 0 0 0 0 0 0 0 0 0 0 0.25 0"/>
<feBlend mode="normal" in2="BackgroundImageFix" result="effect1_dropShadow_144_739"/>
<feBlend mode="normal" in="SourceGraphic" in2="effect1_dropShadow_144_739" result="shape"/>
</filter>
<filter id="filter6_f_144_739" x="3.67149" y="-44.9396" width="703.87" height="591.281" filterUnits="userSpaceOnUse" color-interpolation-filters="sRGB">
<feFlood flood-opacity="0" result="BackgroundImageFix"/>
<feBlend mode="normal" in="SourceGraphic" in2="BackgroundImageFix" result="shape"/>
<feGaussianBlur stdDeviation="109.37" result="effect1_foregroundBlur_144_739"/>
</filter>
<filter id="filter7_d_144_739" x="256.841" y="200.859" width="142.333" height="85.8285" filterUnits="userSpaceOnUse" color-interpolation-filters="sRGB">
<feFlood flood-opacity="0" result="BackgroundImageFix"/>
<feColorMatrix in="SourceAlpha" type="matrix" values="0 0 0 0 0 0 0 0 0 0 0 0 0 0 0 0 0 0 127 0" result="hardAlpha"/>
<feOffset/>
<feGaussianBlur stdDeviation="2.16037"/>
<feComposite in2="hardAlpha" operator="out"/>
<feColorMatrix type="matrix" values="0 0 0 0 0.784314 0 0 0 0 0.996078 0 0 0 0 0.831373 0 0 0 1 0"/>
<feBlend mode="normal" in2="BackgroundImageFix" result="effect1_dropShadow_144_739"/>
<feBlend mode="normal" in="SourceGraphic" in2="effect1_dropShadow_144_739" result="shape"/>
</filter>
<filter id="filter8_d_144_739" x="408.035" y="197.395" width="64.3363" height="40.7969" filterUnits="userSpaceOnUse" color-interpolation-filters="sRGB">
<feFlood flood-opacity="0" result="BackgroundImageFix"/>
<feColorMatrix in="SourceAlpha" type="matrix" values="0 0 0 0 0 0 0 0 0 0 0 0 0 0 0 0 0 0 127 0" result="hardAlpha"/>
<feOffset/>
<feGaussianBlur stdDeviation="2.16037"/>
<feComposite in2="hardAlpha" operator="out"/>
<feColorMatrix type="matrix" values="0 0 0 0 0.784314 0 0 0 0 0.996078 0 0 0 0 0.831373 0 0 0 1 0"/>
<feBlend mode="normal" in2="BackgroundImageFix" result="effect1_dropShadow_144_739"/>
<feBlend mode="normal" in="SourceGraphic" in2="effect1_dropShadow_144_739" result="shape"/>
</filter>
<filter id="filter9_d_144_739" x="313.24" y="271.524" width="76.3359" height="47.7248" filterUnits="userSpaceOnUse" color-interpolation-filters="sRGB">
<feFlood flood-opacity="0" result="BackgroundImageFix"/>
<feColorMatrix in="SourceAlpha" type="matrix" values="0 0 0 0 0 0 0 0 0 0 0 0 0 0 0 0 0 0 127 0" result="hardAlpha"/>
<feOffset/>
<feGaussianBlur stdDeviation="2.16037"/>
<feComposite in2="hardAlpha" operator="out"/>
<feColorMatrix type="matrix" values="0 0 0 0 0.784314 0 0 0 0 0.996078 0 0 0 0 0.831373 0 0 0 1 0"/>
<feBlend mode="normal" in2="BackgroundImageFix" result="effect1_dropShadow_144_739"/>
<feBlend mode="normal" in="SourceGraphic" in2="effect1_dropShadow_144_739" result="shape"/>
</filter>
<filter id="filter10_f_144_739" x="155.499" y="162.159" width="370.215" height="273.383" filterUnits="userSpaceOnUse" color-interpolation-filters="sRGB">
<feFlood flood-opacity="0" result="BackgroundImageFix"/>
<feBlend mode="normal" in="SourceGraphic" in2="BackgroundImageFix" result="shape"/>
<feGaussianBlur stdDeviation="35.2767" result="effect1_foregroundBlur_144_739"/>
</filter>
<filter id="filter11_d_144_739" x="318.851" y="228.332" width="65.9816" height="75.8233" filterUnits="userSpaceOnUse" color-interpolation-filters="sRGB">
<feFlood flood-opacity="0" result="BackgroundImageFix"/>
<feColorMatrix in="SourceAlpha" type="matrix" values="0 0 0 0 0 0 0 0 0 0 0 0 0 0 0 0 0 0 127 0" result="hardAlpha"/>
<feOffset/>
<feGaussianBlur stdDeviation="1.67076"/>
<feComposite in2="hardAlpha" operator="out"/>
<feColorMatrix type="matrix" values="0 0 0 0 0.113725 0 0 0 0 0.666667 0 0 0 0 0.568627 0 0 0 1 0"/>
<feBlend mode="normal" in2="BackgroundImageFix" result="effect1_dropShadow_144_739"/>
<feBlend mode="normal" in="SourceGraphic" in2="effect1_dropShadow_144_739" result="shape"/>
</filter>
<filter id="filter12_d_144_739" x="278.514" y="228.115" width="8.22467" height="49.567" filterUnits="userSpaceOnUse" color-interpolation-filters="sRGB">
<feFlood flood-opacity="0" result="BackgroundImageFix"/>
<feColorMatrix in="SourceAlpha" type="matrix" values="0 0 0 0 0 0 0 0 0 0 0 0 0 0 0 0 0 0 127 0" result="hardAlpha"/>
<feOffset/>
<feGaussianBlur stdDeviation="0.844039"/>
<feComposite in2="hardAlpha" operator="out"/>
<feColorMatrix type="matrix" values="0 0 0 0 0.113725 0 0 0 0 0.666667 0 0 0 0 0.568627 0 0 0 1 0"/>
<feBlend mode="normal" in2="BackgroundImageFix" result="effect1_dropShadow_144_739"/>
<feBlend mode="normal" in="SourceGraphic" in2="effect1_dropShadow_144_739" result="shape"/>
</filter>
<filter id="filter13_d_144_739" x="286.046" y="221.567" width="8.09136" height="24.4203" filterUnits="userSpaceOnUse" color-interpolation-filters="sRGB">
<feFlood flood-opacity="0" result="BackgroundImageFix"/>
<feColorMatrix in="SourceAlpha" type="matrix" values="0 0 0 0 0 0 0 0 0 0 0 0 0 0 0 0 0 0 127 0" result="hardAlpha"/>
<feOffset/>
<feGaussianBlur stdDeviation="0.844039"/>
<feComposite in2="hardAlpha" operator="out"/>
<feColorMatrix type="matrix" values="0 0 0 0 0.113725 0 0 0 0 0.666667 0 0 0 0 0.568627 0 0 0 1 0"/>
<feBlend mode="normal" in2="BackgroundImageFix" result="effect1_dropShadow_144_739"/>
<feBlend mode="normal" in="SourceGraphic" in2="effect1_dropShadow_144_739" result="shape"/>
</filter>
<filter id="filter14_d_144_739" x="293.481" y="212.473" width="8.09136" height="21.0037" filterUnits="userSpaceOnUse" color-interpolation-filters="sRGB">
<feFlood flood-opacity="0" result="BackgroundImageFix"/>
<feColorMatrix in="SourceAlpha" type="matrix" values="0 0 0 0 0 0 0 0 0 0 0 0 0 0 0 0 0 0 127 0" result="hardAlpha"/>
<feOffset/>
<feGaussianBlur stdDeviation="0.844039"/>
<feComposite in2="hardAlpha" operator="out"/>
<feColorMatrix type="matrix" values="0 0 0 0 0.113725 0 0 0 0 0.666667 0 0 0 0 0.568627 0 0 0 1 0"/>
<feBlend mode="normal" in2="BackgroundImageFix" result="effect1_dropShadow_144_739"/>
<feBlend mode="normal" in="SourceGraphic" in2="effect1_dropShadow_144_739" result="shape"/>
</filter>
<filter id="filter15_d_144_739" x="299.934" y="219.888" width="8.08685" height="25.5991" filterUnits="userSpaceOnUse" color-interpolation-filters="sRGB">
<feFlood flood-opacity="0" result="BackgroundImageFix"/>
<feColorMatrix in="SourceAlpha" type="matrix" values="0 0 0 0 0 0 0 0 0 0 0 0 0 0 0 0 0 0 127 0" result="hardAlpha"/>
<feOffset/>
<feGaussianBlur stdDeviation="0.844039"/>
<feComposite in2="hardAlpha" operator="out"/>
<feColorMatrix type="matrix" values="0 0 0 0 0.113725 0 0 0 0 0.666667 0 0 0 0 0.568627 0 0 0 1 0"/>
<feBlend mode="normal" in2="BackgroundImageFix" result="effect1_dropShadow_144_739"/>
<feBlend mode="normal" in="SourceGraphic" in2="effect1_dropShadow_144_739" result="shape"/>
</filter>
<filter id="filter16_d_144_739" x="307.278" y="198.279" width="8.09136" height="57.6452" filterUnits="userSpaceOnUse" color-interpolation-filters="sRGB">
<feFlood flood-opacity="0" result="BackgroundImageFix"/>
<feColorMatrix in="SourceAlpha" type="matrix" values="0 0 0 0 0 0 0 0 0 0 0 0 0 0 0 0 0 0 127 0" result="hardAlpha"/>
<feOffset/>
<feGaussianBlur stdDeviation="0.844039"/>
<feComposite in2="hardAlpha" operator="out"/>
<feColorMatrix type="matrix" values="0 0 0 0 0.113725 0 0 0 0 0.666667 0 0 0 0 0.568627 0 0 0 1 0"/>
<feBlend mode="normal" in2="BackgroundImageFix" result="effect1_dropShadow_144_739"/>
<feBlend mode="normal" in="SourceGraphic" in2="effect1_dropShadow_144_739" result="shape"/>
</filter>
<filter id="filter17_d_144_739" x="314.802" y="176.337" width="8.09136" height="72.2429" filterUnits="userSpaceOnUse" color-interpolation-filters="sRGB">
<feFlood flood-opacity="0" result="BackgroundImageFix"/>
<feColorMatrix in="SourceAlpha" type="matrix" values="0 0 0 0 0 0 0 0 0 0 0 0 0 0 0 0 0 0 127 0" result="hardAlpha"/>
<feOffset/>
<feGaussianBlur stdDeviation="0.844039"/>
<feComposite in2="hardAlpha" operator="out"/>
<feColorMatrix type="matrix" values="0 0 0 0 0.113725 0 0 0 0 0.666667 0 0 0 0 0.568627 0 0 0 1 0"/>
<feBlend mode="normal" in2="BackgroundImageFix" result="effect1_dropShadow_144_739"/>
<feBlend mode="normal" in="SourceGraphic" in2="effect1_dropShadow_144_739" result="shape"/>
</filter>
<filter id="filter18_d_144_739" x="322.059" y="154.713" width="8.09136" height="48.3482" filterUnits="userSpaceOnUse" color-interpolation-filters="sRGB">
<feFlood flood-opacity="0" result="BackgroundImageFix"/>
<feColorMatrix in="SourceAlpha" type="matrix" values="0 0 0 0 0 0 0 0 0 0 0 0 0 0 0 0 0 0 127 0" result="hardAlpha"/>
<feOffset/>
<feGaussianBlur stdDeviation="0.844039"/>
<feComposite in2="hardAlpha" operator="out"/>
<feColorMatrix type="matrix" values="0 0 0 0 0.113725 0 0 0 0 0.666667 0 0 0 0 0.568627 0 0 0 1 0"/>
<feBlend mode="normal" in2="BackgroundImageFix" result="effect1_dropShadow_144_739"/>
<feBlend mode="normal" in="SourceGraphic" in2="effect1_dropShadow_144_739" result="shape"/>
</filter>
<filter id="filter19_d_144_739" x="329.538" y="161.596" width="8.09136" height="21.28" filterUnits="userSpaceOnUse" color-interpolation-filters="sRGB">
<feFlood flood-opacity="0" result="BackgroundImageFix"/>
<feColorMatrix in="SourceAlpha" type="matrix" values="0 0 0 0 0 0 0 0 0 0 0 0 0 0 0 0 0 0 127 0" result="hardAlpha"/>
<feOffset/>
<feGaussianBlur stdDeviation="0.844039"/>
<feComposite in2="hardAlpha" operator="out"/>
<feColorMatrix type="matrix" values="0 0 0 0 0.113725 0 0 0 0 0.666667 0 0 0 0 0.568627 0 0 0 1 0"/>
<feBlend mode="normal" in2="BackgroundImageFix" result="effect1_dropShadow_144_739"/>
<feBlend mode="normal" in="SourceGraphic" in2="effect1_dropShadow_144_739" result="shape"/>
</filter>
<filter id="filter20_d_144_739" x="336.932" y="155.471" width="8.08831" height="29.3772" filterUnits="userSpaceOnUse" color-interpolation-filters="sRGB">
<feFlood flood-opacity="0" result="BackgroundImageFix"/>
<feColorMatrix in="SourceAlpha" type="matrix" values="0 0 0 0 0 0 0 0 0 0 0 0 0 0 0 0 0 0 127 0" result="hardAlpha"/>
<feOffset/>
<feGaussianBlur stdDeviation="0.844039"/>
<feComposite in2="hardAlpha" operator="out"/>
<feColorMatrix type="matrix" values="0 0 0 0 0.113725 0 0 0 0 0.666667 0 0 0 0 0.568627 0 0 0 1 0"/>
<feBlend mode="normal" in2="BackgroundImageFix" result="effect1_dropShadow_144_739"/>
<feBlend mode="normal" in="SourceGraphic" in2="effect1_dropShadow_144_739" result="shape"/>
</filter>
<filter id="filter21_d_144_739" x="344.323" y="163.91" width="8.09136" height="21.494" filterUnits="userSpaceOnUse" color-interpolation-filters="sRGB">
<feFlood flood-opacity="0" result="BackgroundImageFix"/>
<feColorMatrix in="SourceAlpha" type="matrix" values="0 0 0 0 0 0 0 0 0 0 0 0 0 0 0 0 0 0 127 0" result="hardAlpha"/>
<feOffset/>
<feGaussianBlur stdDeviation="0.844039"/>
<feComposite in2="hardAlpha" operator="out"/>
<feColorMatrix type="matrix" values="0 0 0 0 0.113725 0 0 0 0 0.666667 0 0 0 0 0.568627 0 0 0 1 0"/>
<feBlend mode="normal" in2="BackgroundImageFix" result="effect1_dropShadow_144_739"/>
<feBlend mode="normal" in="SourceGraphic" in2="effect1_dropShadow_144_739" result="shape"/>
</filter>
<filter id="filter22_d_144_739" x="351.803" y="128.039" width="8.09136" height="47.9227" filterUnits="userSpaceOnUse" color-interpolation-filters="sRGB">
<feFlood flood-opacity="0" result="BackgroundImageFix"/>
<feColorMatrix in="SourceAlpha" type="matrix" values="0 0 0 0 0 0 0 0 0 0 0 0 0 0 0 0 0 0 127 0" result="hardAlpha"/>
<feOffset/>
<feGaussianBlur stdDeviation="0.844039"/>
<feComposite in2="hardAlpha" operator="out"/>
<feColorMatrix type="matrix" values="0 0 0 0 0.113725 0 0 0 0 0.666667 0 0 0 0 0.568627 0 0 0 1 0"/>
<feBlend mode="normal" in2="BackgroundImageFix" result="effect1_dropShadow_144_739"/>
<feBlend mode="normal" in="SourceGraphic" in2="effect1_dropShadow_144_739" result="shape"/>
</filter>
<linearGradient id="paint0_linear_144_739" x1="7.29953" y1="1" x2="384.514" y2="546.156" gradientUnits="userSpaceOnUse">
<stop stop-color="#F6A91C" stop-opacity="0.1"/>
<stop offset="1" stop-opacity="0"/>
</linearGradient>
<linearGradient id="paint1_linear_144_739" x1="579.269" y1="317.991" x2="582.024" y2="310.991" gradientUnits="userSpaceOnUse">
<stop stop-color="#F6A91C" stop-opacity="0"/>
<stop offset="1" stop-color="#F6A91C"/>
</linearGradient>
<linearGradient id="paint2_linear_144_739" x1="173.664" y1="295.443" x2="157.657" y2="276.213" gradientUnits="userSpaceOnUse">
<stop stop-color="#F6A91C" stop-opacity="0.2"/>
<stop offset="1" stop-color="#F6A91C"/>
</linearGradient>
<linearGradient id="paint3_linear_144_739" x1="267.261" y1="349.48" x2="251.254" y2="330.25" gradientUnits="userSpaceOnUse">
<stop stop-color="#F6A91C" stop-opacity="0.2"/>
<stop offset="1" stop-color="#F6A91C"/>
</linearGradient>
<linearGradient id="paint4_linear_144_739" x1="155.171" y1="310.306" x2="171.755" y2="327.948" gradientUnits="userSpaceOnUse">
<stop stop-color="#F6A91C" stop-opacity="0"/>
<stop offset="1" stop-color="#F6A91C"/>
</linearGradient>
<linearGradient id="paint5_linear_144_739" x1="230.812" y1="372.633" x2="232.375" y2="367.341" gradientUnits="userSpaceOnUse">
<stop stop-color="#F6A91C" stop-opacity="0"/>
<stop offset="1" stop-color="#F6A91C"/>
</linearGradient>
<linearGradient id="paint6_linear_144_739" x1="342.601" y1="243.192" x2="371.303" y2="292.905" gradientUnits="userSpaceOnUse">
<stop stop-color="#F6A91C"/>
<stop offset="0.69" stop-color="#F6A91C" stop-opacity="0"/>
</linearGradient>
<linearGradient id="paint7_linear_144_739" x1="446.363" y1="290.444" x2="374.966" y2="166.781" gradientUnits="userSpaceOnUse">
<stop stop-color="#F6A91C" stop-opacity="0.6"/>
<stop offset="1" stop-color="#F6A91C" stop-opacity="0.05"/>
</linearGradient>
<linearGradient id="paint8_linear_144_739" x1="128.816" y1="313.746" x2="128.498" y2="310.321" gradientUnits="userSpaceOnUse">
<stop stop-color="#F6A91C" stop-opacity="0"/>
<stop offset="1" stop-color="#F6A91C"/>
</linearGradient>
<linearGradient id="paint9_linear_144_739" x1="416.896" y1="156.115" x2="445.288" y2="223.276" gradientUnits="userSpaceOnUse">
<stop stop-color="#F6A91C" stop-opacity="0"/>
<stop offset="1" stop-color="#F6A91C" stop-opacity="0.6"/>
</linearGradient>
<linearGradient id="paint10_linear_144_739" x1="266.991" y1="194.725" x2="300.359" y2="260.564" gradientUnits="userSpaceOnUse">
<stop stop-color="#F6A91C" stop-opacity="0"/>
<stop offset="1" stop-color="#F6A91C" stop-opacity="0.4"/>
</linearGradient>
<linearGradient id="paint11_linear_144_739" x1="306.416" y1="228.768" x2="349.949" y2="303.72" gradientUnits="userSpaceOnUse">
<stop stop-color="#F6A91C" stop-opacity="0"/>
<stop offset="1" stop-color="#F6A91C" stop-opacity="0.6"/>
</linearGradient>
<clipPath id="clip0_144_739">
<path d="M1.5 11C1.5 5.47716 5.97715 1 11.5 1H619C624.523 1 629 5.47715 629 11V371C629 376.523 624.523 381 619 381H11.5C5.97715 381 1.5 376.523 1.5 371V11Z" fill="white"/>
</clipPath>
<clipPath id="clip1_144_739">
<rect width="629.614" height="295.451" fill="white" transform="translate(-0.11438 105.472)"/>
</clipPath>
<clipPath id="clip2_144_739">
<rect width="629.614" height="295.451" fill="white" transform="translate(-0.11438 105.472)"/>
</clipPath>
<clipPath id="clip3_144_739">
<rect width="629.614" height="295.461" fill="white" transform="translate(-0.11438 105.468)"/>
</clipPath>
</defs>
</svg>
